inDegrees=no
num_controls=7
num_derivatives=13
num_iterations=125
num_multipliers=7
num_parameters=0
num_slacks=7
num_states=26
objective=0.430573
objective_accelerations=0.050769
objective_balance=0.007021
objective_effort=0.031758
objective_height=0.339950
objective_ligament=0.001074
solver_duration=1583.174146
status=Solve_Succeeded
success=true
DataType=double
version=3
OpenSimVersion=4.5
endheader
time	/jointset/ground_pelvis/pelvis_tilt/value	/jointset/ground_pelvis/pelvis_tx/value	/jointset/ground_pelvis/pelvis_ty/value	/jointset/hip_l/hip_flexion_l/value	/jointset/hip_l/hip_adduction_l/value	/jointset/hip_l/hip_rotation_l/value	/jointset/back/lumbar_extension/value	/jointset/patellofemoral_l/patellar_flexion_l/value	/jointset/knee_l/knee_flexion_l/value	/jointset/knee_l/knee_adduction_l/value	/jointset/knee_l/knee_rotation_l/value	/jointset/ankle_l/ankle_angle_l/value	/jointset/subtalar_l/subtalar_angle_l/value	/jointset/ground_pelvis/pelvis_tilt/speed	/jointset/ground_pelvis/pelvis_tx/speed	/jointset/ground_pelvis/pelvis_ty/speed	/jointset/hip_l/hip_flexion_l/speed	/jointset/hip_l/hip_adduction_l/speed	/jointset/hip_l/hip_rotation_l/speed	/jointset/back/lumbar_extension/speed	/jointset/patellofemoral_l/patellar_flexion_l/speed	/jointset/knee_l/knee_flexion_l/speed	/jointset/knee_l/knee_adduction_l/speed	/jointset/knee_l/knee_rotation_l/speed	/jointset/ankle_l/ankle_angle_l/speed	/jointset/subtalar_l/subtalar_angle_l/speed	/forceset/tau_hip_flexion_l	/forceset/tau_hip_adduction_l	/forceset/tau_hip_rotation_l	/forceset/tau_knee_flexion_l	/forceset/tau_ankle_angle_l	/forceset/tau_subtalar_angle_l	/forceset/tau_lumbar_extension	lambda_cid13_p0	lambda_cid13_p1	lambda_cid13_p2	lambda_cid13_p3	lambda_cid13_p4	lambda_cid13_p5	lambda_cid14_p0	/jointset/ground_pelvis/pelvis_tilt/accel	/jointset/ground_pelvis/pelvis_tx/accel	/jointset/ground_pelvis/pelvis_ty/accel	/jointset/hip_l/hip_flexion_l/accel	/jointset/hip_l/hip_adduction_l/accel	/jointset/hip_l/hip_rotation_l/accel	/jointset/back/lumbar_extension/accel	/jointset/patellofemoral_l/patellar_flexion_l/accel	/jointset/knee_l/knee_flexion_l/accel	/jointset/knee_l/knee_adduction_l/accel	/jointset/knee_l/knee_rotation_l/accel	/jointset/ankle_l/ankle_angle_l/accel	/jointset/subtalar_l/subtalar_angle_l/accel	gamma_cid13_p0	gamma_cid13_p1	gamma_cid13_p2	gamma_cid13_p3	gamma_cid13_p4	gamma_cid13_p5	gamma_cid14_p0
0	-0.1568825901736204	0.05735233309322439	0.8978899342114731	0.3774924667018715	-0.2606940285895926	-0.2461340729040938	-0.01265067647494873	0.03223648243721284	0.03223648243721463	-0.1745329140776523	0.1489217313867655	-0.04231377076293093	-0.01113164217249593	0	0	0	0	0	0	0	0	0	0	0	0	0	0.1541661534805247	-0.0826743483905725	-0.05129085369733113	-0.336518141598515	0.3761565928062511	-0.05033647940025718	-0.09198502018266687	79.14426768346937	3.646941742619106	3.992447677322299	-32.2924003737788	-590.1503938279047	-69.78836400454568	-38.29701340537195	-3.019158503105663	-1.371483559924146	-0.9848720275750036	11.12458290533667	-1.35753757885753	3.437508410838875	-5.528054456776984	10.79095949378391	10.79095949378403	0.03875931504616332	0.3376930593480885	2.914647132493758	-0.7101560981014142	-6.040552215560927e-08	5.047000863876903e-08	1.286449057919773e-07	3.417155381607606e-08	-3.291951022648388e-08	-1.022622618766904e-07	-2.030835852926868e-08
0.01	-0.1570259005453231	0.05728291892095084	0.8978417926439639	0.3780349216264066	-0.2607615522112464	-0.2459627925551692	-0.01292784819447948	0.03276437731484041	0.03276437731484204	-0.1745328306232524	0.1489352674432702	-0.04217399625129777	-0.01116816956637202	-0.02835406550576521	-0.01399987335449875	-0.009603041233198301	0.1080735808879187	-0.01343416486898064	0.03410808412231369	-0.05504773770578278	0.1051574128000302	0.1051574128000311	2.907644662096089e-05	0.002698786195679456	0.02762938288633906	-0.007312644285550584	0.1393665484002759	-0.09140093217109663	-0.04739335840438532	-0.3115378020993212	0.3349277524604999	-0.02821516959255488	-0.08157348957668473	66.65109202220695	-3.610432621718021	4.96391646333103	-23.04758369384852	-590.5410059400899	-82.92767598700333	-38.31248302801139	-2.69733565076357	-1.431788223793953	-0.9442359147974309	10.58612765067135	-1.325802436002198	3.3752436303205	-5.435142497438638	10.31490182594631	10.31490182594636	-0.01313220707631532	0.2346921478641308	2.638250452851136	-0.7429154644864273	-8.033801683882268e-08	8.477503754123372e-08	1.731535577045491e-07	4.342492351481103e-08	-1.29121047606351e-07	-7.476842901376558e-08	-2.863364736772055e-08
0.02	-0.1574435125873741	0.05706999621501618	0.8976983775154017	0.3796455887538506	-0.2609613067806066	-0.2454548743215426	-0.01374389910506069	0.03433120025103441	0.03433120025103478	-0.1745320792077406	0.1489755355113693	-0.04176769459357178	-0.01127804277724457	-0.05486033406959383	-0.02870170673222206	-0.01905471221062385	0.2136424405819137	-0.02644618954131625	0.06732757694034254	-0.1077758382099575	0.2077856117134087	0.2077856117134085	0.0001335922313864408	0.005346402318808695	0.05330542921856387	-0.01466916339928321	0.1245669433200169	-0.1001275159516196	-0.04349586311144088	-0.2865574626001347	0.2936989121147456	-0.006093859784852033	-0.07116195897070979	54.24512249853075	-10.88590521449028	5.941507784913587	-14.02371197677582	-589.6438098730973	-95.95487741609683	-38.35841661655068	-2.649599114718366	-1.511875564569033	-0.9545979764204535	10.6236386665519	-1.273109539528537	3.25979014998191	-5.06412701645537	10.28511671645357	10.28511671645329	0.05384718267503927	0.3274590448380433	2.523979821670934	-0.7189310637378301	-1.002705115220361e-07	1.190800664436984e-07	2.176622096171208e-07	5.2678293213546e-08	-2.253225849862182e-07	-4.727459615084073e-08	-3.695893620617242e-08
0.03	-0.1581191276390138	0.05670895771537298	0.8974610898157039	0.3822987028828519	-0.2612884706375704	-0.2446193035352088	-0.01507534648463993	0.0369112881883944	0.03691128818839278	-0.1745292611055993	0.1490420854469917	-0.04111147604937184	-0.01146047964630251	-0.08014043696150357	-0.04337989142914034	-0.02838307079269728	0.3164327499796184	-0.03886836991150697	0.09962790229880056	-0.1581311550096333	0.3077416021133975	0.307741602113405	0.0004796605686843423	0.007951993864863125	0.07789245236589634	-0.02171766231303254	0.1205538490301938	-0.09407292534551986	-0.04312784040453953	-0.2843883304729616	0.292950380554187	-0.01020544510763335	-0.06756890927251301	53.85200666205137	-9.170977906795313	5.827517433324817	-14.54522151047811	-590.0445485310411	-91.85236991590439	-38.43335354691735	-2.448890061266257	-1.426864084033722	-0.9190367118763172	10.02456702535017	-1.209074951794021	3.191320829234218	-4.963861607313304	9.777291580425386	9.777291580426661	0.03247440299260973	0.2253412014805556	2.419183227862541	-0.6827699465429437	-1.264874914728106e-07	1.385792841061686e-07	2.40033907649777e-07	8.1642267767026e-08	-3.600033051678195e-07	-3.758831626137335e-08	-4.085320707715485e-08
0.04	-0.159043878556541	0.0562049225364046	0.8971311021476303	0.3859632880956256	-0.2617363168314418	-0.2434654960751999	-0.01689887255133404	0.04047622630548275	0.04047622630548269	-0.1745214847713303	0.1491343376964773	-0.04021076334037896	-0.01171039363276789	-0.104687507246971	-0.05730104259725612	-0.03759470588582495	0.41593665733614	-0.05058265692288536	0.1309749116755169	-0.2061915756328969	0.4047556476595391	0.4047556476595526	0.00112523865540056	0.01048686509057333	0.1022042621771544	-0.02816458688075989	0.1165407547403823	-0.08801833473941667	-0.04275981769761412	-0.282219198345789	0.2922018489936294	-0.01431703043041139	-0.06397585957430761	53.54014734686908	-7.469299000899258	5.714524742217407	-15.27244446300181	-589.2652715822188	-87.63622012511105	-38.53528244418639	-2.502992593429915	-1.360468858808504	-0.9312532786313048	9.966358258315251	-1.131530867766084	3.069126953633579	-4.605147781172942	9.696727745684147	9.696727745683491	0.1137491325586741	0.3133149807691964	2.468937154456086	-0.5986161945334414	-1.528340484394111e-07	1.577732273100823e-07	2.619491736436721e-07	1.110126465443152e-07	-4.954774105618277e-07	-2.826920241259581e-08	-4.465611675293171e-08
0.05	-0.1602104715025883	0.05556480302088667	0.8967092543187437	0.3906079293199593	-0.2622979479310666	-0.2420028707796386	-0.01919173633747553	0.04499754669167917	0.04499754669167781	-0.1745062166069778	0.1492517888829025	-0.03906884971686959	-0.01202211482106298	-0.1284724165653086	-0.07065970598204394	-0.04678014335106655	0.5125083689379485	-0.06164467840149741	0.1614067781064366	-0.252059466913317	0.4990543897792507	0.4990543897792565	0.001921182031294129	0.01298887360646266	0.1260578809963239	-0.0341191751153622	0.1100471471784404	-0.08547575457391195	-0.04163333154133444	-0.2757292587669503	0.2827809656058665	-0.01232017220551107	-0.05889075474482031	50.65093830971762	-7.892590900947772	5.852753382532685	-13.7400464351001	-588.3990967608564	-87.43800564635374	-38.6617259691245	-2.292448028711472	-1.314069459728055	-0.9130816896303409	9.430076803206624	-1.07873998706976	3.008673466094686	-4.529352599192955	9.228350436981499	9.228350436980856	0.06148621209646255	0.2164331930996456	2.325476496409522	-0.584861816706414	-1.695445491241943e-07	1.639871646636938e-07	2.904452990257835e-07	1.26785321504539e-07	-5.740739186615053e-07	-2.867564834025785e-08	-4.94448312849948e-08
